<mxfile host="Electron" modified="2023-10-11T00:19:43.821Z" agent="Mozilla/5.0 (Windows NT 10.0; Win64; x64) AppleWebKit/537.36 (KHTML, like Gecko) draw.io/22.0.2 Chrome/114.0.5735.289 Electron/25.8.4 Safari/537.36" etag="iD9UBhvWQe2e1DvGpHLE" version="22.0.2" type="device">
  <diagram name="Page-1" id="wlKBHaDkIwPEDU4ZFKzl">
    <mxGraphModel dx="2602" dy="1851" grid="1" gridSize="10" guides="1" tooltips="1" connect="1" arrows="1" fold="1" page="1" pageScale="1" pageWidth="827" pageHeight="1169" math="0" shadow="0">
      <root>
        <mxCell id="0" />
        <mxCell id="1" parent="0" />
        <mxCell id="WjTRaIzGjWAchnlHQQHK-1" value="Package" style="rounded=0;whiteSpace=wrap;html=1;" vertex="1" parent="1">
          <mxGeometry x="50" y="80" width="100" height="30" as="geometry" />
        </mxCell>
        <mxCell id="WjTRaIzGjWAchnlHQQHK-2" value="Destination" style="rounded=0;whiteSpace=wrap;html=1;" vertex="1" parent="1">
          <mxGeometry x="580" y="70" width="100" height="30" as="geometry" />
        </mxCell>
        <mxCell id="WjTRaIzGjWAchnlHQQHK-26" style="edgeStyle=orthogonalEdgeStyle;rounded=0;orthogonalLoop=1;jettySize=auto;html=1;" edge="1" parent="1" source="WjTRaIzGjWAchnlHQQHK-3">
          <mxGeometry relative="1" as="geometry">
            <mxPoint x="110" y="320" as="targetPoint" />
          </mxGeometry>
        </mxCell>
        <mxCell id="WjTRaIzGjWAchnlHQQHK-3" value="Provider" style="rounded=0;whiteSpace=wrap;html=1;" vertex="1" parent="1">
          <mxGeometry x="60" y="330" width="100" height="30" as="geometry" />
        </mxCell>
        <mxCell id="WjTRaIzGjWAchnlHQQHK-5" value="Has" style="rhombus;whiteSpace=wrap;html=1;" vertex="1" parent="1">
          <mxGeometry x="330" y="70" width="60" height="40" as="geometry" />
        </mxCell>
        <mxCell id="WjTRaIzGjWAchnlHQQHK-6" value="" style="endArrow=none;html=1;rounded=0;entryX=0;entryY=0.5;entryDx=0;entryDy=0;" edge="1" parent="1" target="WjTRaIzGjWAchnlHQQHK-5">
          <mxGeometry width="50" height="50" relative="1" as="geometry">
            <mxPoint x="150" y="90" as="sourcePoint" />
            <mxPoint x="200" y="40" as="targetPoint" />
          </mxGeometry>
        </mxCell>
        <mxCell id="WjTRaIzGjWAchnlHQQHK-7" value="" style="endArrow=none;html=1;rounded=0;entryX=0;entryY=0.75;entryDx=0;entryDy=0;" edge="1" parent="1" target="WjTRaIzGjWAchnlHQQHK-2">
          <mxGeometry width="50" height="50" relative="1" as="geometry">
            <mxPoint x="390" y="89.58" as="sourcePoint" />
            <mxPoint x="570" y="89.58" as="targetPoint" />
          </mxGeometry>
        </mxCell>
        <mxCell id="WjTRaIzGjWAchnlHQQHK-8" value="N, (1, M)" style="text;html=1;strokeColor=none;fillColor=none;align=center;verticalAlign=middle;whiteSpace=wrap;rounded=0;" vertex="1" parent="1">
          <mxGeometry x="520" y="60" width="60" height="30" as="geometry" />
        </mxCell>
        <mxCell id="WjTRaIzGjWAchnlHQQHK-9" value="M, (0, N)" style="text;html=1;strokeColor=none;fillColor=none;align=center;verticalAlign=middle;whiteSpace=wrap;rounded=0;" vertex="1" parent="1">
          <mxGeometry x="150" y="60" width="60" height="30" as="geometry" />
        </mxCell>
        <mxCell id="WjTRaIzGjWAchnlHQQHK-10" value="" style="endArrow=none;html=1;rounded=0;entryX=0.158;entryY=0.742;entryDx=0;entryDy=0;entryPerimeter=0;" edge="1" parent="1" target="WjTRaIzGjWAchnlHQQHK-5">
          <mxGeometry width="50" height="50" relative="1" as="geometry">
            <mxPoint x="150" y="100" as="sourcePoint" />
            <mxPoint x="330" y="100" as="targetPoint" />
          </mxGeometry>
        </mxCell>
        <mxCell id="WjTRaIzGjWAchnlHQQHK-11" value="&lt;u&gt;Package#&lt;/u&gt;" style="ellipse;whiteSpace=wrap;html=1;" vertex="1" parent="1">
          <mxGeometry x="20" y="-40" width="100" height="40" as="geometry" />
        </mxCell>
        <mxCell id="WjTRaIzGjWAchnlHQQHK-12" style="edgeStyle=orthogonalEdgeStyle;rounded=0;orthogonalLoop=1;jettySize=auto;html=1;exitX=0.5;exitY=1;exitDx=0;exitDy=0;entryX=0.187;entryY=-0.033;entryDx=0;entryDy=0;entryPerimeter=0;" edge="1" parent="1" source="WjTRaIzGjWAchnlHQQHK-11" target="WjTRaIzGjWAchnlHQQHK-1">
          <mxGeometry relative="1" as="geometry" />
        </mxCell>
        <mxCell id="WjTRaIzGjWAchnlHQQHK-14" style="edgeStyle=orthogonalEdgeStyle;rounded=0;orthogonalLoop=1;jettySize=auto;html=1;exitX=1;exitY=0.5;exitDx=0;exitDy=0;entryX=0;entryY=0.25;entryDx=0;entryDy=0;" edge="1" parent="1" source="WjTRaIzGjWAchnlHQQHK-13" target="WjTRaIzGjWAchnlHQQHK-1">
          <mxGeometry relative="1" as="geometry" />
        </mxCell>
        <mxCell id="WjTRaIzGjWAchnlHQQHK-13" value="departureDate" style="ellipse;whiteSpace=wrap;html=1;" vertex="1" parent="1">
          <mxGeometry x="-130" y="55" width="100" height="40" as="geometry" />
        </mxCell>
        <mxCell id="WjTRaIzGjWAchnlHQQHK-16" style="edgeStyle=orthogonalEdgeStyle;rounded=0;orthogonalLoop=1;jettySize=auto;html=1;exitX=1;exitY=0;exitDx=0;exitDy=0;entryX=0;entryY=0.75;entryDx=0;entryDy=0;" edge="1" parent="1" source="WjTRaIzGjWAchnlHQQHK-15" target="WjTRaIzGjWAchnlHQQHK-1">
          <mxGeometry relative="1" as="geometry" />
        </mxCell>
        <mxCell id="WjTRaIzGjWAchnlHQQHK-15" value="Duration" style="ellipse;whiteSpace=wrap;html=1;" vertex="1" parent="1">
          <mxGeometry x="-110" y="150" width="100" height="40" as="geometry" />
        </mxCell>
        <mxCell id="WjTRaIzGjWAchnlHQQHK-17" value="&lt;u&gt;Country&lt;/u&gt;" style="ellipse;whiteSpace=wrap;html=1;" vertex="1" parent="1">
          <mxGeometry x="560" y="-60" width="100" height="40" as="geometry" />
        </mxCell>
        <mxCell id="WjTRaIzGjWAchnlHQQHK-18" style="edgeStyle=orthogonalEdgeStyle;rounded=0;orthogonalLoop=1;jettySize=auto;html=1;exitX=0.5;exitY=1;exitDx=0;exitDy=0;entryX=0.317;entryY=0.078;entryDx=0;entryDy=0;entryPerimeter=0;" edge="1" parent="1" source="WjTRaIzGjWAchnlHQQHK-17" target="WjTRaIzGjWAchnlHQQHK-2">
          <mxGeometry relative="1" as="geometry" />
        </mxCell>
        <mxCell id="WjTRaIzGjWAchnlHQQHK-19" value="Continent" style="ellipse;whiteSpace=wrap;html=1;" vertex="1" parent="1">
          <mxGeometry x="670" y="-40" width="100" height="40" as="geometry" />
        </mxCell>
        <mxCell id="WjTRaIzGjWAchnlHQQHK-20" style="edgeStyle=orthogonalEdgeStyle;rounded=0;orthogonalLoop=1;jettySize=auto;html=1;exitX=0;exitY=1;exitDx=0;exitDy=0;entryX=0.833;entryY=-0.006;entryDx=0;entryDy=0;entryPerimeter=0;" edge="1" parent="1" source="WjTRaIzGjWAchnlHQQHK-19" target="WjTRaIzGjWAchnlHQQHK-2">
          <mxGeometry relative="1" as="geometry" />
        </mxCell>
        <mxCell id="WjTRaIzGjWAchnlHQQHK-21" value="NumDays" style="ellipse;whiteSpace=wrap;html=1;" vertex="1" parent="1">
          <mxGeometry x="340" y="-20" width="80" height="40" as="geometry" />
        </mxCell>
        <mxCell id="WjTRaIzGjWAchnlHQQHK-22" style="edgeStyle=orthogonalEdgeStyle;rounded=0;orthogonalLoop=1;jettySize=auto;html=1;exitX=0.5;exitY=1;exitDx=0;exitDy=0;entryX=0.667;entryY=0.058;entryDx=0;entryDy=0;entryPerimeter=0;" edge="1" parent="1" source="WjTRaIzGjWAchnlHQQHK-21" target="WjTRaIzGjWAchnlHQQHK-5">
          <mxGeometry relative="1" as="geometry" />
        </mxCell>
        <mxCell id="WjTRaIzGjWAchnlHQQHK-23" value="served" style="rhombus;whiteSpace=wrap;html=1;" vertex="1" parent="1">
          <mxGeometry x="80" y="210" width="60" height="40" as="geometry" />
        </mxCell>
        <mxCell id="WjTRaIzGjWAchnlHQQHK-24" value="" style="endArrow=none;html=1;rounded=0;exitX=0.5;exitY=0;exitDx=0;exitDy=0;" edge="1" parent="1" source="WjTRaIzGjWAchnlHQQHK-23">
          <mxGeometry width="50" height="50" relative="1" as="geometry">
            <mxPoint x="60" y="160" as="sourcePoint" />
            <mxPoint x="110" y="110" as="targetPoint" />
          </mxGeometry>
        </mxCell>
        <mxCell id="WjTRaIzGjWAchnlHQQHK-25" value="" style="endArrow=none;html=1;rounded=0;" edge="1" parent="1">
          <mxGeometry width="50" height="50" relative="1" as="geometry">
            <mxPoint x="110" y="320" as="sourcePoint" />
            <mxPoint x="109.58" y="250" as="targetPoint" />
          </mxGeometry>
        </mxCell>
        <mxCell id="WjTRaIzGjWAchnlHQQHK-27" value="1, (0, M)" style="text;html=1;strokeColor=none;fillColor=none;align=center;verticalAlign=middle;whiteSpace=wrap;rounded=0;" vertex="1" parent="1">
          <mxGeometry x="130" y="290" width="60" height="30" as="geometry" />
        </mxCell>
        <mxCell id="WjTRaIzGjWAchnlHQQHK-28" value="M, (1, M)" style="text;html=1;strokeColor=none;fillColor=none;align=center;verticalAlign=middle;whiteSpace=wrap;rounded=0;" vertex="1" parent="1">
          <mxGeometry x="120" y="120" width="60" height="30" as="geometry" />
        </mxCell>
        <mxCell id="WjTRaIzGjWAchnlHQQHK-29" value="26-C" style="text;html=1;strokeColor=none;fillColor=none;align=center;verticalAlign=middle;whiteSpace=wrap;rounded=0;" vertex="1" parent="1">
          <mxGeometry x="70" y="-110" width="60" height="30" as="geometry" />
        </mxCell>
        <mxCell id="WjTRaIzGjWAchnlHQQHK-30" value="Client" style="rounded=0;whiteSpace=wrap;html=1;" vertex="1" parent="1">
          <mxGeometry x="560" y="570" width="90" height="30" as="geometry" />
        </mxCell>
        <mxCell id="WjTRaIzGjWAchnlHQQHK-31" value="InsurancePlan" style="rounded=0;whiteSpace=wrap;html=1;" vertex="1" parent="1">
          <mxGeometry x="125" y="565" width="110" height="35" as="geometry" />
        </mxCell>
        <mxCell id="WjTRaIzGjWAchnlHQQHK-32" value="Policy" style="rounded=0;whiteSpace=wrap;html=1;" vertex="1" parent="1">
          <mxGeometry x="150" y="840" width="70" height="30" as="geometry" />
        </mxCell>
        <mxCell id="WjTRaIzGjWAchnlHQQHK-33" value="Registered" style="rhombus;whiteSpace=wrap;html=1;" vertex="1" parent="1">
          <mxGeometry x="370" y="555" width="80" height="60" as="geometry" />
        </mxCell>
        <mxCell id="WjTRaIzGjWAchnlHQQHK-34" value="" style="endArrow=none;html=1;rounded=0;exitX=1;exitY=0.5;exitDx=0;exitDy=0;" edge="1" parent="1" source="WjTRaIzGjWAchnlHQQHK-33">
          <mxGeometry width="50" height="50" relative="1" as="geometry">
            <mxPoint x="510" y="630" as="sourcePoint" />
            <mxPoint x="560" y="580" as="targetPoint" />
          </mxGeometry>
        </mxCell>
        <mxCell id="WjTRaIzGjWAchnlHQQHK-35" value="" style="endArrow=none;html=1;rounded=0;exitX=1;exitY=0.5;exitDx=0;exitDy=0;" edge="1" parent="1" source="WjTRaIzGjWAchnlHQQHK-31">
          <mxGeometry width="50" height="50" relative="1" as="geometry">
            <mxPoint x="260" y="590" as="sourcePoint" />
            <mxPoint x="370" y="585" as="targetPoint" />
          </mxGeometry>
        </mxCell>
        <mxCell id="WjTRaIzGjWAchnlHQQHK-36" value="M" style="text;html=1;strokeColor=none;fillColor=none;align=center;verticalAlign=middle;whiteSpace=wrap;rounded=0;" vertex="1" parent="1">
          <mxGeometry x="235" y="550" width="60" height="30" as="geometry" />
        </mxCell>
        <mxCell id="WjTRaIzGjWAchnlHQQHK-37" value="N" style="text;html=1;strokeColor=none;fillColor=none;align=center;verticalAlign=middle;whiteSpace=wrap;rounded=0;" vertex="1" parent="1">
          <mxGeometry x="500" y="550" width="60" height="30" as="geometry" />
        </mxCell>
        <mxCell id="WjTRaIzGjWAchnlHQQHK-38" value="made up &lt;br&gt;of" style="rhombus;whiteSpace=wrap;html=1;" vertex="1" parent="1">
          <mxGeometry x="150" y="710" width="70" height="60" as="geometry" />
        </mxCell>
        <mxCell id="WjTRaIzGjWAchnlHQQHK-39" value="" style="endArrow=none;html=1;rounded=0;exitX=1;exitY=0.5;exitDx=0;exitDy=0;entryX=0.5;entryY=0;entryDx=0;entryDy=0;" edge="1" parent="1" target="WjTRaIzGjWAchnlHQQHK-38">
          <mxGeometry width="50" height="50" relative="1" as="geometry">
            <mxPoint x="180" y="600" as="sourcePoint" />
            <mxPoint x="315" y="602" as="targetPoint" />
          </mxGeometry>
        </mxCell>
        <mxCell id="WjTRaIzGjWAchnlHQQHK-40" value="" style="endArrow=none;html=1;rounded=0;exitX=1;exitY=0.5;exitDx=0;exitDy=0;" edge="1" parent="1">
          <mxGeometry width="50" height="50" relative="1" as="geometry">
            <mxPoint x="182.5" y="770" as="sourcePoint" />
            <mxPoint x="188" y="840" as="targetPoint" />
          </mxGeometry>
        </mxCell>
        <mxCell id="WjTRaIzGjWAchnlHQQHK-41" value="M" style="text;html=1;strokeColor=none;fillColor=none;align=center;verticalAlign=middle;whiteSpace=wrap;rounded=0;" vertex="1" parent="1">
          <mxGeometry x="190" y="810" width="60" height="30" as="geometry" />
        </mxCell>
        <mxCell id="WjTRaIzGjWAchnlHQQHK-42" value="M" style="text;html=1;strokeColor=none;fillColor=none;align=center;verticalAlign=middle;whiteSpace=wrap;rounded=0;" vertex="1" parent="1">
          <mxGeometry x="190" y="610" width="50" height="30" as="geometry" />
        </mxCell>
        <mxCell id="WjTRaIzGjWAchnlHQQHK-43" value="&lt;u&gt;ClientId&lt;/u&gt;" style="ellipse;whiteSpace=wrap;html=1;" vertex="1" parent="1">
          <mxGeometry x="555" y="420" width="60" height="40" as="geometry" />
        </mxCell>
        <mxCell id="WjTRaIzGjWAchnlHQQHK-44" style="edgeStyle=orthogonalEdgeStyle;rounded=0;orthogonalLoop=1;jettySize=auto;html=1;exitX=0;exitY=1;exitDx=0;exitDy=0;entryX=0;entryY=0;entryDx=0;entryDy=0;" edge="1" parent="1" source="WjTRaIzGjWAchnlHQQHK-43" target="WjTRaIzGjWAchnlHQQHK-30">
          <mxGeometry relative="1" as="geometry" />
        </mxCell>
        <mxCell id="WjTRaIzGjWAchnlHQQHK-46" style="edgeStyle=orthogonalEdgeStyle;rounded=0;orthogonalLoop=1;jettySize=auto;html=1;exitX=0;exitY=1;exitDx=0;exitDy=0;entryX=0.315;entryY=-0.117;entryDx=0;entryDy=0;entryPerimeter=0;" edge="1" parent="1" source="WjTRaIzGjWAchnlHQQHK-45" target="WjTRaIzGjWAchnlHQQHK-30">
          <mxGeometry relative="1" as="geometry" />
        </mxCell>
        <mxCell id="WjTRaIzGjWAchnlHQQHK-45" value="Name" style="ellipse;whiteSpace=wrap;html=1;" vertex="1" parent="1">
          <mxGeometry x="605" y="460" width="60" height="40" as="geometry" />
        </mxCell>
        <mxCell id="WjTRaIzGjWAchnlHQQHK-48" style="edgeStyle=orthogonalEdgeStyle;rounded=0;orthogonalLoop=1;jettySize=auto;html=1;exitX=0;exitY=0.5;exitDx=0;exitDy=0;entryX=0.602;entryY=-0.006;entryDx=0;entryDy=0;entryPerimeter=0;" edge="1" parent="1" source="WjTRaIzGjWAchnlHQQHK-47" target="WjTRaIzGjWAchnlHQQHK-30">
          <mxGeometry relative="1" as="geometry" />
        </mxCell>
        <mxCell id="WjTRaIzGjWAchnlHQQHK-47" value="Address" style="ellipse;whiteSpace=wrap;html=1;" vertex="1" parent="1">
          <mxGeometry x="710" y="480" width="60" height="40" as="geometry" />
        </mxCell>
        <mxCell id="WjTRaIzGjWAchnlHQQHK-50" style="edgeStyle=orthogonalEdgeStyle;rounded=0;orthogonalLoop=1;jettySize=auto;html=1;exitX=0;exitY=0;exitDx=0;exitDy=0;entryX=1;entryY=0;entryDx=0;entryDy=0;" edge="1" parent="1" source="WjTRaIzGjWAchnlHQQHK-49" target="WjTRaIzGjWAchnlHQQHK-30">
          <mxGeometry relative="1" as="geometry" />
        </mxCell>
        <mxCell id="WjTRaIzGjWAchnlHQQHK-49" value="DOB" style="ellipse;whiteSpace=wrap;html=1;" vertex="1" parent="1">
          <mxGeometry x="760" y="550" width="60" height="40" as="geometry" />
        </mxCell>
        <mxCell id="WjTRaIzGjWAchnlHQQHK-51" value="PNum" style="ellipse;whiteSpace=wrap;html=1;" vertex="1" parent="1">
          <mxGeometry x="690" y="580" width="60" height="40" as="geometry" />
        </mxCell>
        <mxCell id="WjTRaIzGjWAchnlHQQHK-52" style="edgeStyle=orthogonalEdgeStyle;rounded=0;orthogonalLoop=1;jettySize=auto;html=1;exitX=0.5;exitY=0;exitDx=0;exitDy=0;entryX=1;entryY=0.5;entryDx=0;entryDy=0;" edge="1" parent="1" source="WjTRaIzGjWAchnlHQQHK-51" target="WjTRaIzGjWAchnlHQQHK-30">
          <mxGeometry relative="1" as="geometry" />
        </mxCell>
        <mxCell id="WjTRaIzGjWAchnlHQQHK-54" value="Private" style="rounded=0;whiteSpace=wrap;html=1;" vertex="1" parent="1">
          <mxGeometry x="660" y="750" width="100" height="30" as="geometry" />
        </mxCell>
        <mxCell id="WjTRaIzGjWAchnlHQQHK-55" value="Corporate" style="rounded=0;whiteSpace=wrap;html=1;" vertex="1" parent="1">
          <mxGeometry x="470" y="740" width="100" height="30" as="geometry" />
        </mxCell>
        <mxCell id="WjTRaIzGjWAchnlHQQHK-56" value="d" style="ellipse;whiteSpace=wrap;html=1;aspect=fixed;" vertex="1" parent="1">
          <mxGeometry x="595" y="660" width="30" height="30" as="geometry" />
        </mxCell>
        <mxCell id="WjTRaIzGjWAchnlHQQHK-57" value="" style="endArrow=none;html=1;rounded=0;exitX=0.5;exitY=0;exitDx=0;exitDy=0;" edge="1" parent="1" source="WjTRaIzGjWAchnlHQQHK-56">
          <mxGeometry width="50" height="50" relative="1" as="geometry">
            <mxPoint x="500" y="605" as="sourcePoint" />
            <mxPoint x="610" y="600" as="targetPoint" />
          </mxGeometry>
        </mxCell>
        <mxCell id="WjTRaIzGjWAchnlHQQHK-58" value="" style="endArrow=none;html=1;rounded=0;exitX=0;exitY=0;exitDx=0;exitDy=0;" edge="1" parent="1">
          <mxGeometry width="50" height="50" relative="1" as="geometry">
            <mxPoint x="660.83" y="750" as="sourcePoint" />
            <mxPoint x="625" y="680" as="targetPoint" />
          </mxGeometry>
        </mxCell>
        <mxCell id="WjTRaIzGjWAchnlHQQHK-59" value="" style="endArrow=none;html=1;rounded=0;exitX=1;exitY=0.25;exitDx=0;exitDy=0;" edge="1" parent="1" source="WjTRaIzGjWAchnlHQQHK-55">
          <mxGeometry width="50" height="50" relative="1" as="geometry">
            <mxPoint x="640.83" y="760" as="sourcePoint" />
            <mxPoint x="605" y="690" as="targetPoint" />
          </mxGeometry>
        </mxCell>
        <mxCell id="WjTRaIzGjWAchnlHQQHK-60" value="U" style="text;html=1;strokeColor=none;fillColor=none;align=center;verticalAlign=middle;whiteSpace=wrap;rounded=0;" vertex="1" parent="1">
          <mxGeometry x="615" y="710" width="60" height="30" as="geometry" />
        </mxCell>
        <mxCell id="WjTRaIzGjWAchnlHQQHK-61" value="U" style="text;html=1;strokeColor=none;fillColor=none;align=center;verticalAlign=middle;whiteSpace=wrap;rounded=0;" vertex="1" parent="1">
          <mxGeometry x="555" y="700" width="60" height="30" as="geometry" />
        </mxCell>
        <mxCell id="WjTRaIzGjWAchnlHQQHK-63" value="RegNo" style="ellipse;whiteSpace=wrap;html=1;" vertex="1" parent="1">
          <mxGeometry x="475" y="820" width="80" height="35" as="geometry" />
        </mxCell>
        <mxCell id="WjTRaIzGjWAchnlHQQHK-64" style="edgeStyle=orthogonalEdgeStyle;rounded=0;orthogonalLoop=1;jettySize=auto;html=1;exitX=0.5;exitY=0;exitDx=0;exitDy=0;entryX=0.442;entryY=0.967;entryDx=0;entryDy=0;entryPerimeter=0;" edge="1" parent="1" source="WjTRaIzGjWAchnlHQQHK-63" target="WjTRaIzGjWAchnlHQQHK-55">
          <mxGeometry relative="1" as="geometry" />
        </mxCell>
        <mxCell id="WjTRaIzGjWAchnlHQQHK-65" value="Profession" style="ellipse;whiteSpace=wrap;html=1;" vertex="1" parent="1">
          <mxGeometry x="610" y="855" width="80" height="35" as="geometry" />
        </mxCell>
        <mxCell id="WjTRaIzGjWAchnlHQQHK-66" style="edgeStyle=orthogonalEdgeStyle;rounded=0;orthogonalLoop=1;jettySize=auto;html=1;exitX=0.5;exitY=0;exitDx=0;exitDy=0;entryX=0.308;entryY=0.939;entryDx=0;entryDy=0;entryPerimeter=0;" edge="1" parent="1" source="WjTRaIzGjWAchnlHQQHK-65" target="WjTRaIzGjWAchnlHQQHK-54">
          <mxGeometry relative="1" as="geometry" />
        </mxCell>
        <mxCell id="WjTRaIzGjWAchnlHQQHK-69" style="edgeStyle=orthogonalEdgeStyle;rounded=0;orthogonalLoop=1;jettySize=auto;html=1;exitX=0;exitY=0;exitDx=0;exitDy=0;entryX=0.75;entryY=1;entryDx=0;entryDy=0;" edge="1" parent="1" source="WjTRaIzGjWAchnlHQQHK-67" target="WjTRaIzGjWAchnlHQQHK-54">
          <mxGeometry relative="1" as="geometry" />
        </mxCell>
        <mxCell id="WjTRaIzGjWAchnlHQQHK-67" value="TypeInsurance" style="ellipse;whiteSpace=wrap;html=1;" vertex="1" parent="1">
          <mxGeometry x="710" y="855" width="80" height="35" as="geometry" />
        </mxCell>
        <mxCell id="WjTRaIzGjWAchnlHQQHK-68" value="Disjointed" style="text;html=1;strokeColor=none;fillColor=none;align=center;verticalAlign=middle;whiteSpace=wrap;rounded=0;" vertex="1" parent="1">
          <mxGeometry x="730" y="825" width="60" height="30" as="geometry" />
        </mxCell>
        <mxCell id="WjTRaIzGjWAchnlHQQHK-70" value="PeriodOfTime" style="ellipse;whiteSpace=wrap;html=1;" vertex="1" parent="1">
          <mxGeometry x="160" y="465.98" width="70" height="30" as="geometry" />
        </mxCell>
        <mxCell id="WjTRaIzGjWAchnlHQQHK-71" style="edgeStyle=orthogonalEdgeStyle;rounded=0;orthogonalLoop=1;jettySize=auto;html=1;exitX=0.5;exitY=1;exitDx=0;exitDy=0;entryX=0.417;entryY=0.067;entryDx=0;entryDy=0;entryPerimeter=0;" edge="1" parent="1" source="WjTRaIzGjWAchnlHQQHK-70">
          <mxGeometry relative="1" as="geometry">
            <mxPoint x="193.36000000000013" y="565" as="targetPoint" />
          </mxGeometry>
        </mxCell>
        <mxCell id="WjTRaIzGjWAchnlHQQHK-72" value="&lt;u&gt;Policyname&lt;/u&gt;" style="ellipse;whiteSpace=wrap;html=1;" vertex="1" parent="1">
          <mxGeometry x="280" y="855" width="95" height="50" as="geometry" />
        </mxCell>
        <mxCell id="WjTRaIzGjWAchnlHQQHK-73" style="edgeStyle=orthogonalEdgeStyle;rounded=0;orthogonalLoop=1;jettySize=auto;html=1;exitX=0;exitY=0;exitDx=0;exitDy=0;entryX=1.083;entryY=0.55;entryDx=0;entryDy=0;entryPerimeter=0;" edge="1" parent="1" source="WjTRaIzGjWAchnlHQQHK-72" target="WjTRaIzGjWAchnlHQQHK-32">
          <mxGeometry relative="1" as="geometry" />
        </mxCell>
        <mxCell id="WjTRaIzGjWAchnlHQQHK-75" value="" style="edgeStyle=orthogonalEdgeStyle;rounded=0;orthogonalLoop=1;jettySize=auto;html=1;" edge="1" parent="1" source="WjTRaIzGjWAchnlHQQHK-74" target="WjTRaIzGjWAchnlHQQHK-38">
          <mxGeometry relative="1" as="geometry" />
        </mxCell>
        <mxCell id="WjTRaIzGjWAchnlHQQHK-74" value="&lt;u&gt;DateTime&lt;/u&gt;" style="ellipse;whiteSpace=wrap;html=1;" vertex="1" parent="1">
          <mxGeometry x="275" y="715" width="95" height="50" as="geometry" />
        </mxCell>
        <mxCell id="WjTRaIzGjWAchnlHQQHK-76" value="27. B" style="text;html=1;strokeColor=none;fillColor=none;align=center;verticalAlign=middle;whiteSpace=wrap;rounded=0;" vertex="1" parent="1">
          <mxGeometry x="270" y="430" width="60" height="30" as="geometry" />
        </mxCell>
        <mxCell id="WjTRaIzGjWAchnlHQQHK-92" value="Supplier" style="rounded=0;whiteSpace=wrap;html=1;" vertex="1" parent="1">
          <mxGeometry x="-690" y="475.98" width="90" height="30" as="geometry" />
        </mxCell>
        <mxCell id="WjTRaIzGjWAchnlHQQHK-93" value="Item&lt;br&gt;" style="rounded=0;whiteSpace=wrap;html=1;" vertex="1" parent="1">
          <mxGeometry x="-220" y="450" width="70" height="25.98" as="geometry" />
        </mxCell>
        <mxCell id="WjTRaIzGjWAchnlHQQHK-94" value="Order" style="rounded=0;whiteSpace=wrap;html=1;" vertex="1" parent="1">
          <mxGeometry x="-458" y="750" width="90" height="35" as="geometry" />
        </mxCell>
        <mxCell id="WjTRaIzGjWAchnlHQQHK-96" value="Supplies" style="rhombus;whiteSpace=wrap;html=1;" vertex="1" parent="1">
          <mxGeometry x="-448" y="460" width="70" height="46" as="geometry" />
        </mxCell>
        <mxCell id="WjTRaIzGjWAchnlHQQHK-97" value="" style="endArrow=none;html=1;rounded=0;entryX=0;entryY=0.5;entryDx=0;entryDy=0;" edge="1" parent="1" target="WjTRaIzGjWAchnlHQQHK-96">
          <mxGeometry width="50" height="50" relative="1" as="geometry">
            <mxPoint x="-600" y="490" as="sourcePoint" />
            <mxPoint x="-550" y="440" as="targetPoint" />
          </mxGeometry>
        </mxCell>
        <mxCell id="WjTRaIzGjWAchnlHQQHK-98" value="" style="endArrow=none;html=1;rounded=0;" edge="1" parent="1">
          <mxGeometry width="50" height="50" relative="1" as="geometry">
            <mxPoint x="-378" y="483.5" as="sourcePoint" />
            <mxPoint x="-220" y="477" as="targetPoint" />
          </mxGeometry>
        </mxCell>
        <mxCell id="WjTRaIzGjWAchnlHQQHK-99" value="M" style="text;html=1;strokeColor=none;fillColor=none;align=center;verticalAlign=middle;whiteSpace=wrap;rounded=0;" vertex="1" parent="1">
          <mxGeometry x="-600" y="450" width="60" height="30" as="geometry" />
        </mxCell>
        <mxCell id="WjTRaIzGjWAchnlHQQHK-100" value="N" style="text;html=1;strokeColor=none;fillColor=none;align=center;verticalAlign=middle;whiteSpace=wrap;rounded=0;" vertex="1" parent="1">
          <mxGeometry x="-280" y="445.98" width="60" height="30" as="geometry" />
        </mxCell>
        <mxCell id="WjTRaIzGjWAchnlHQQHK-101" value="Orders" style="rhombus;whiteSpace=wrap;html=1;" vertex="1" parent="1">
          <mxGeometry x="-440" y="590" width="70" height="50" as="geometry" />
        </mxCell>
        <mxCell id="WjTRaIzGjWAchnlHQQHK-103" value="" style="endArrow=none;html=1;rounded=0;" edge="1" parent="1" source="WjTRaIzGjWAchnlHQQHK-101">
          <mxGeometry width="50" height="50" relative="1" as="geometry">
            <mxPoint x="-650" y="560" as="sourcePoint" />
            <mxPoint x="-600" y="510" as="targetPoint" />
          </mxGeometry>
        </mxCell>
        <mxCell id="WjTRaIzGjWAchnlHQQHK-104" value="" style="endArrow=none;html=1;rounded=0;exitX=0.25;exitY=1;exitDx=0;exitDy=0;" edge="1" parent="1" source="WjTRaIzGjWAchnlHQQHK-93">
          <mxGeometry width="50" height="50" relative="1" as="geometry">
            <mxPoint x="-203" y="704" as="sourcePoint" />
            <mxPoint x="-378" y="610" as="targetPoint" />
          </mxGeometry>
        </mxCell>
        <mxCell id="WjTRaIzGjWAchnlHQQHK-105" value="" style="endArrow=none;html=1;rounded=0;exitX=0.5;exitY=0;exitDx=0;exitDy=0;" edge="1" parent="1" source="WjTRaIzGjWAchnlHQQHK-94">
          <mxGeometry width="50" height="50" relative="1" as="geometry">
            <mxPoint x="-410" y="740" as="sourcePoint" />
            <mxPoint x="-400" y="640" as="targetPoint" />
          </mxGeometry>
        </mxCell>
        <mxCell id="WjTRaIzGjWAchnlHQQHK-106" value="1" style="text;html=1;strokeColor=none;fillColor=none;align=center;verticalAlign=middle;whiteSpace=wrap;rounded=0;" vertex="1" parent="1">
          <mxGeometry x="-400" y="715" width="60" height="30" as="geometry" />
        </mxCell>
        <mxCell id="WjTRaIzGjWAchnlHQQHK-107" value="M" style="text;html=1;strokeColor=none;fillColor=none;align=center;verticalAlign=middle;whiteSpace=wrap;rounded=0;" vertex="1" parent="1">
          <mxGeometry x="-220" y="485" width="60" height="30" as="geometry" />
        </mxCell>
        <mxCell id="WjTRaIzGjWAchnlHQQHK-108" value="M" style="text;html=1;strokeColor=none;fillColor=none;align=center;verticalAlign=middle;whiteSpace=wrap;rounded=0;" vertex="1" parent="1">
          <mxGeometry x="-640" y="520" width="60" height="30" as="geometry" />
        </mxCell>
        <mxCell id="WjTRaIzGjWAchnlHQQHK-109" value="29. d" style="text;html=1;strokeColor=none;fillColor=none;align=center;verticalAlign=middle;whiteSpace=wrap;rounded=0;" vertex="1" parent="1">
          <mxGeometry x="-550" y="390" width="60" height="30" as="geometry" />
        </mxCell>
        <mxCell id="WjTRaIzGjWAchnlHQQHK-110" value="Book" style="rounded=0;whiteSpace=wrap;html=1;" vertex="1" parent="1">
          <mxGeometry x="-740" y="-670" width="90" height="30" as="geometry" />
        </mxCell>
        <mxCell id="WjTRaIzGjWAchnlHQQHK-111" value="Printed" style="rounded=0;whiteSpace=wrap;html=1;" vertex="1" parent="1">
          <mxGeometry x="-880" y="-480" width="90" height="30" as="geometry" />
        </mxCell>
        <mxCell id="WjTRaIzGjWAchnlHQQHK-112" value="E-Book" style="rounded=0;whiteSpace=wrap;html=1;" vertex="1" parent="1">
          <mxGeometry x="-640" y="-480" width="90" height="30" as="geometry" />
        </mxCell>
        <mxCell id="WjTRaIzGjWAchnlHQQHK-113" value="o" style="ellipse;whiteSpace=wrap;html=1;aspect=fixed;" vertex="1" parent="1">
          <mxGeometry x="-720" y="-570" width="30" height="30" as="geometry" />
        </mxCell>
        <mxCell id="WjTRaIzGjWAchnlHQQHK-114" value="" style="endArrow=none;html=1;rounded=0;exitX=0.5;exitY=0;exitDx=0;exitDy=0;" edge="1" parent="1" source="WjTRaIzGjWAchnlHQQHK-113">
          <mxGeometry width="50" height="50" relative="1" as="geometry">
            <mxPoint x="-740" y="-590" as="sourcePoint" />
            <mxPoint x="-690" y="-640" as="targetPoint" />
          </mxGeometry>
        </mxCell>
        <mxCell id="WjTRaIzGjWAchnlHQQHK-115" value="" style="endArrow=none;html=1;rounded=0;exitX=0;exitY=0;exitDx=0;exitDy=0;" edge="1" parent="1" source="WjTRaIzGjWAchnlHQQHK-112">
          <mxGeometry width="50" height="50" relative="1" as="geometry">
            <mxPoint x="-705" y="-480" as="sourcePoint" />
            <mxPoint x="-690" y="-550" as="targetPoint" />
          </mxGeometry>
        </mxCell>
        <mxCell id="WjTRaIzGjWAchnlHQQHK-116" value="" style="endArrow=none;html=1;rounded=0;exitX=1;exitY=0;exitDx=0;exitDy=0;" edge="1" parent="1" source="WjTRaIzGjWAchnlHQQHK-111">
          <mxGeometry width="50" height="50" relative="1" as="geometry">
            <mxPoint x="-660" y="-470" as="sourcePoint" />
            <mxPoint x="-710" y="-540" as="targetPoint" />
          </mxGeometry>
        </mxCell>
        <mxCell id="WjTRaIzGjWAchnlHQQHK-119" value="U" style="text;html=1;strokeColor=none;fillColor=none;align=center;verticalAlign=middle;whiteSpace=wrap;rounded=0;" vertex="1" parent="1">
          <mxGeometry x="-780" y="-530" width="60" height="30" as="geometry" />
        </mxCell>
        <mxCell id="WjTRaIzGjWAchnlHQQHK-120" value="U" style="text;html=1;strokeColor=none;fillColor=none;align=center;verticalAlign=middle;whiteSpace=wrap;rounded=0;" vertex="1" parent="1">
          <mxGeometry x="-690" y="-530" width="60" height="30" as="geometry" />
        </mxCell>
        <mxCell id="WjTRaIzGjWAchnlHQQHK-121" value="" style="endArrow=none;html=1;rounded=0;exitX=0.5;exitY=0;exitDx=0;exitDy=0;" edge="1" parent="1">
          <mxGeometry width="50" height="50" relative="1" as="geometry">
            <mxPoint x="-695" y="-570" as="sourcePoint" />
            <mxPoint x="-680" y="-640" as="targetPoint" />
          </mxGeometry>
        </mxCell>
        <mxCell id="WjTRaIzGjWAchnlHQQHK-122" value="NumPrinted" style="ellipse;whiteSpace=wrap;html=1;" vertex="1" parent="1">
          <mxGeometry x="-1020" y="-530" width="70" height="30" as="geometry" />
        </mxCell>
        <mxCell id="WjTRaIzGjWAchnlHQQHK-123" value="Price" style="ellipse;whiteSpace=wrap;html=1;" vertex="1" parent="1">
          <mxGeometry x="-940" y="-550" width="70" height="30" as="geometry" />
        </mxCell>
        <mxCell id="WjTRaIzGjWAchnlHQQHK-124" value="" style="endArrow=none;html=1;rounded=0;exitX=0.246;exitY=-0.172;exitDx=0;exitDy=0;exitPerimeter=0;" edge="1" parent="1" source="WjTRaIzGjWAchnlHQQHK-111">
          <mxGeometry width="50" height="50" relative="1" as="geometry">
            <mxPoint x="-920" y="-480" as="sourcePoint" />
            <mxPoint x="-870" y="-530" as="targetPoint" />
          </mxGeometry>
        </mxCell>
        <mxCell id="WjTRaIzGjWAchnlHQQHK-125" value="" style="endArrow=none;html=1;rounded=0;exitX=0;exitY=0;exitDx=0;exitDy=0;" edge="1" parent="1" source="WjTRaIzGjWAchnlHQQHK-111">
          <mxGeometry width="50" height="50" relative="1" as="geometry">
            <mxPoint x="-940" y="-465" as="sourcePoint" />
            <mxPoint x="-952" y="-510" as="targetPoint" />
          </mxGeometry>
        </mxCell>
        <mxCell id="WjTRaIzGjWAchnlHQQHK-126" value="Price" style="ellipse;whiteSpace=wrap;html=1;" vertex="1" parent="1">
          <mxGeometry x="-570" y="-570" width="70" height="30" as="geometry" />
        </mxCell>
        <mxCell id="WjTRaIzGjWAchnlHQQHK-127" value="" style="endArrow=none;html=1;rounded=0;exitX=0.75;exitY=0;exitDx=0;exitDy=0;" edge="1" parent="1" source="WjTRaIzGjWAchnlHQQHK-112">
          <mxGeometry width="50" height="50" relative="1" as="geometry">
            <mxPoint x="-538" y="-495" as="sourcePoint" />
            <mxPoint x="-550" y="-540" as="targetPoint" />
          </mxGeometry>
        </mxCell>
        <mxCell id="WjTRaIzGjWAchnlHQQHK-128" value="Platform" style="rounded=0;whiteSpace=wrap;html=1;" vertex="1" parent="1">
          <mxGeometry x="-380" y="-590" width="100" height="30" as="geometry" />
        </mxCell>
        <mxCell id="WjTRaIzGjWAchnlHQQHK-129" value="Available" style="rhombus;whiteSpace=wrap;html=1;" vertex="1" parent="1">
          <mxGeometry x="-483" y="-500" width="70" height="40" as="geometry" />
        </mxCell>
        <mxCell id="WjTRaIzGjWAchnlHQQHK-130" value="" style="endArrow=none;html=1;rounded=0;exitX=0.836;exitY=0.246;exitDx=0;exitDy=0;exitPerimeter=0;" edge="1" parent="1" source="WjTRaIzGjWAchnlHQQHK-129">
          <mxGeometry width="50" height="50" relative="1" as="geometry">
            <mxPoint x="-410" y="-510" as="sourcePoint" />
            <mxPoint x="-360" y="-560" as="targetPoint" />
          </mxGeometry>
        </mxCell>
        <mxCell id="WjTRaIzGjWAchnlHQQHK-131" value="" style="endArrow=none;html=1;rounded=0;exitX=0.836;exitY=0.246;exitDx=0;exitDy=0;exitPerimeter=0;entryX=0.086;entryY=0.662;entryDx=0;entryDy=0;entryPerimeter=0;" edge="1" parent="1" target="WjTRaIzGjWAchnlHQQHK-129">
          <mxGeometry width="50" height="50" relative="1" as="geometry">
            <mxPoint x="-554" y="-460" as="sourcePoint" />
            <mxPoint x="-490" y="-530" as="targetPoint" />
          </mxGeometry>
        </mxCell>
        <mxCell id="WjTRaIzGjWAchnlHQQHK-132" value="&lt;u&gt;Name&lt;/u&gt;" style="ellipse;whiteSpace=wrap;html=1;" vertex="1" parent="1">
          <mxGeometry x="-390" y="-690" width="60" height="40" as="geometry" />
        </mxCell>
        <mxCell id="WjTRaIzGjWAchnlHQQHK-133" value="Description" style="ellipse;whiteSpace=wrap;html=1;" vertex="1" parent="1">
          <mxGeometry x="-320" y="-680" width="60" height="40" as="geometry" />
        </mxCell>
        <mxCell id="WjTRaIzGjWAchnlHQQHK-134" value="" style="endArrow=none;html=1;rounded=0;exitX=0.25;exitY=0;exitDx=0;exitDy=0;" edge="1" parent="1" source="WjTRaIzGjWAchnlHQQHK-128">
          <mxGeometry width="50" height="50" relative="1" as="geometry">
            <mxPoint x="-420" y="-580" as="sourcePoint" />
            <mxPoint x="-356" y="-650" as="targetPoint" />
          </mxGeometry>
        </mxCell>
        <mxCell id="WjTRaIzGjWAchnlHQQHK-135" value="" style="endArrow=none;html=1;rounded=0;exitX=0.9;exitY=0;exitDx=0;exitDy=0;exitPerimeter=0;" edge="1" parent="1" source="WjTRaIzGjWAchnlHQQHK-128">
          <mxGeometry width="50" height="50" relative="1" as="geometry">
            <mxPoint x="-289.5" y="-580" as="sourcePoint" />
            <mxPoint x="-290.5" y="-640" as="targetPoint" />
          </mxGeometry>
        </mxCell>
        <mxCell id="WjTRaIzGjWAchnlHQQHK-136" value="M" style="text;html=1;strokeColor=none;fillColor=none;align=center;verticalAlign=middle;whiteSpace=wrap;rounded=0;" vertex="1" parent="1">
          <mxGeometry x="-560" y="-460" width="60" height="30" as="geometry" />
        </mxCell>
        <mxCell id="WjTRaIzGjWAchnlHQQHK-137" value="N" style="text;html=1;strokeColor=none;fillColor=none;align=center;verticalAlign=middle;whiteSpace=wrap;rounded=0;" vertex="1" parent="1">
          <mxGeometry x="-378" y="-560" width="60" height="30" as="geometry" />
        </mxCell>
        <mxCell id="WjTRaIzGjWAchnlHQQHK-138" value="&lt;u&gt;BookId&lt;/u&gt;" style="ellipse;whiteSpace=wrap;html=1;" vertex="1" parent="1">
          <mxGeometry x="-770" y="-770" width="70" height="40" as="geometry" />
        </mxCell>
        <mxCell id="WjTRaIzGjWAchnlHQQHK-139" value="Title" style="ellipse;whiteSpace=wrap;html=1;" vertex="1" parent="1">
          <mxGeometry x="-680" y="-760" width="40" height="30" as="geometry" />
        </mxCell>
        <mxCell id="WjTRaIzGjWAchnlHQQHK-140" value="Numpages" style="ellipse;whiteSpace=wrap;html=1;" vertex="1" parent="1">
          <mxGeometry x="-630" y="-750" width="80" height="30" as="geometry" />
        </mxCell>
        <mxCell id="WjTRaIzGjWAchnlHQQHK-141" value="ReleaseDate" style="ellipse;whiteSpace=wrap;html=1;" vertex="1" parent="1">
          <mxGeometry x="-600" y="-720" width="80" height="30" as="geometry" />
        </mxCell>
        <mxCell id="WjTRaIzGjWAchnlHQQHK-142" value="" style="endArrow=none;html=1;rounded=0;exitX=0.25;exitY=0;exitDx=0;exitDy=0;" edge="1" parent="1" source="WjTRaIzGjWAchnlHQQHK-110">
          <mxGeometry width="50" height="50" relative="1" as="geometry">
            <mxPoint x="-780" y="-680" as="sourcePoint" />
            <mxPoint x="-730" y="-730" as="targetPoint" />
          </mxGeometry>
        </mxCell>
        <mxCell id="WjTRaIzGjWAchnlHQQHK-143" value="" style="endArrow=none;html=1;rounded=0;exitX=0.5;exitY=0;exitDx=0;exitDy=0;" edge="1" parent="1" source="WjTRaIzGjWAchnlHQQHK-110">
          <mxGeometry width="50" height="50" relative="1" as="geometry">
            <mxPoint x="-653.5" y="-670" as="sourcePoint" />
            <mxPoint x="-666.5" y="-730" as="targetPoint" />
          </mxGeometry>
        </mxCell>
        <mxCell id="WjTRaIzGjWAchnlHQQHK-144" value="" style="endArrow=none;html=1;rounded=0;exitX=0.5;exitY=0;exitDx=0;exitDy=0;" edge="1" parent="1">
          <mxGeometry width="50" height="50" relative="1" as="geometry">
            <mxPoint x="-658.5" y="-670" as="sourcePoint" />
            <mxPoint x="-630" y="-730" as="targetPoint" />
          </mxGeometry>
        </mxCell>
        <mxCell id="WjTRaIzGjWAchnlHQQHK-145" value="" style="endArrow=none;html=1;rounded=0;exitX=1;exitY=0.25;exitDx=0;exitDy=0;" edge="1" parent="1" source="WjTRaIzGjWAchnlHQQHK-110">
          <mxGeometry width="50" height="50" relative="1" as="geometry">
            <mxPoint x="-624.25" y="-640" as="sourcePoint" />
            <mxPoint x="-595.75" y="-700" as="targetPoint" />
          </mxGeometry>
        </mxCell>
        <mxCell id="WjTRaIzGjWAchnlHQQHK-146" value="Genre" style="rounded=0;whiteSpace=wrap;html=1;" vertex="1" parent="1">
          <mxGeometry x="-970" y="-690" width="80" height="20" as="geometry" />
        </mxCell>
        <mxCell id="WjTRaIzGjWAchnlHQQHK-147" value="Belong" style="rhombus;whiteSpace=wrap;html=1;" vertex="1" parent="1">
          <mxGeometry x="-840" y="-700" width="60" height="50" as="geometry" />
        </mxCell>
        <mxCell id="WjTRaIzGjWAchnlHQQHK-148" value="" style="endArrow=none;html=1;rounded=0;exitX=0;exitY=0.5;exitDx=0;exitDy=0;" edge="1" parent="1" source="WjTRaIzGjWAchnlHQQHK-110">
          <mxGeometry width="50" height="50" relative="1" as="geometry">
            <mxPoint x="-768" y="-632.5" as="sourcePoint" />
            <mxPoint x="-780" y="-677.5" as="targetPoint" />
          </mxGeometry>
        </mxCell>
        <mxCell id="WjTRaIzGjWAchnlHQQHK-149" value="" style="endArrow=none;html=1;rounded=0;exitX=0;exitY=0.5;exitDx=0;exitDy=0;entryX=1;entryY=0.75;entryDx=0;entryDy=0;" edge="1" parent="1" target="WjTRaIzGjWAchnlHQQHK-146">
          <mxGeometry width="50" height="50" relative="1" as="geometry">
            <mxPoint x="-830" y="-670" as="sourcePoint" />
            <mxPoint x="-870" y="-692.5" as="targetPoint" />
          </mxGeometry>
        </mxCell>
        <mxCell id="WjTRaIzGjWAchnlHQQHK-150" value="M" style="text;html=1;strokeColor=none;fillColor=none;align=center;verticalAlign=middle;whiteSpace=wrap;rounded=0;" vertex="1" parent="1">
          <mxGeometry x="-900" y="-670" width="60" height="30" as="geometry" />
        </mxCell>
        <mxCell id="WjTRaIzGjWAchnlHQQHK-151" value="N" style="text;html=1;strokeColor=none;fillColor=none;align=center;verticalAlign=middle;whiteSpace=wrap;rounded=0;" vertex="1" parent="1">
          <mxGeometry x="-800" y="-660" width="60" height="30" as="geometry" />
        </mxCell>
        <mxCell id="WjTRaIzGjWAchnlHQQHK-152" value="30. b" style="text;html=1;strokeColor=none;fillColor=none;align=center;verticalAlign=middle;whiteSpace=wrap;rounded=0;" vertex="1" parent="1">
          <mxGeometry x="-765" y="-830" width="60" height="30" as="geometry" />
        </mxCell>
      </root>
    </mxGraphModel>
  </diagram>
</mxfile>
